<?xml version="1.0" encoding="UTF-8"?>
<!DOCTYPE svg PUBLIC "-//W3C//DTD SVG 1.1//EN" "http://www.w3.org/Graphics/SVG/1.1/DTD/svg11.dtd">
<svg xmlns="http://www.w3.org/2000/svg" version="1.1" width="512px" height="512px" style="shape-rendering:geometricPrecision; text-rendering:geometricPrecision; image-rendering:optimizeQuality; fill-rule:evenodd; clip-rule:evenodd" xmlns:xlink="http://www.w3.org/1999/xlink">
<g><path style="opacity:0.993" fill="#83d24e" d="M 324.5,189.5 C 325.352,186.777 326.519,184.11 328,181.5C 346.887,153.274 371.387,131.441 401.5,116C 408.092,110.727 410.259,103.894 408,95.5C 402.989,86.4949 395.489,83.3282 385.5,86C 362.079,97.9667 341.246,113.467 323,132.5C 313.539,143.447 304.706,154.78 296.5,166.5C 282.715,148.104 277.882,127.437 282,104.5C 288.012,73.5108 304.512,50.0108 331.5,34C 364.329,15.4594 399.662,6.62604 437.5,7.5C 453.311,7.54944 468.977,9.04944 484.5,12C 486.396,13.8083 486.896,15.975 486,18.5C 480.893,28.0492 476.893,38.0492 474,48.5C 468.112,73.0533 461.445,97.3866 454,121.5C 445.302,147.513 429.802,168.346 407.5,184C 380.611,198.248 352.945,200.081 324.5,189.5 Z"/></g>
<g><path style="opacity:0.99" fill="#71b646" d="M 244.5,161.5 C 225.006,142.42 203.34,126.253 179.5,113C 168.247,107.862 159.747,110.695 154,121.5C 152.734,127.631 153.734,133.298 157,138.5C 177.155,150.161 195.989,163.661 213.5,179C 217.747,182.742 221.414,186.908 224.5,191.5C 198.629,205.607 171.629,208.107 143.5,199C 122.811,187.804 107.977,171.304 99,149.5C 90.6035,125.583 83.6035,101.25 78,76.5C 75.4971,67.8286 72.1638,59.4953 68,51.5C 67.1923,49.4213 67.359,47.4213 68.5,45.5C 119.701,36.1745 167.701,44.6745 212.5,71C 242.295,94.209 252.962,124.376 244.5,161.5 Z"/></g>
<g><path style="opacity:0.994" fill="#72b646" d="M 324.5,189.5 C 310.474,213.251 302.141,238.918 299.5,266.5C 287.774,263.994 276.108,263.994 264.5,266.5C 264.448,264.097 264.781,261.764 265.5,259.5C 267.618,240.357 271.952,221.691 278.5,203.5C 283.173,190.488 289.173,178.155 296.5,166.5C 304.706,154.78 313.539,143.447 323,132.5C 341.246,113.467 362.079,97.9667 385.5,86C 395.489,83.3282 402.989,86.4949 408,95.5C 410.259,103.894 408.092,110.727 401.5,116C 371.387,131.441 346.887,153.274 328,181.5C 326.519,184.11 325.352,186.777 324.5,189.5 Z"/></g>
<g><path style="opacity:0.996" fill="#5d8c3e" d="M 244.5,161.5 C 256.97,174.631 268.304,188.631 278.5,203.5C 271.952,221.691 267.618,240.357 265.5,259.5C 256.426,234.01 242.759,211.344 224.5,191.5C 221.414,186.908 217.747,182.742 213.5,179C 195.989,163.661 177.155,150.161 157,138.5C 153.734,133.298 152.734,127.631 154,121.5C 159.747,110.695 168.247,107.862 179.5,113C 203.34,126.253 225.006,142.42 244.5,161.5 Z"/></g>
<g><path style="opacity:0.995" fill="#6b4227" d="M 299.5,266.5 C 311.433,270.59 320.933,277.923 328,288.5C 357.521,275.88 382.188,282.214 402,307.5C 420.725,297.515 438.892,298.348 456.5,310C 460.416,313.41 463.749,317.243 466.5,321.5C 438.181,340.329 409.514,358.663 380.5,376.5C 382.692,373.45 384.358,370.117 385.5,366.5C 387.865,351.702 381.865,342.202 367.5,338C 299.176,327.252 230.843,316.752 162.5,306.5C 168.188,297.128 176.188,290.295 186.5,286C 202.83,279.873 218.83,280.706 234.5,288.5C 241.99,277.668 251.99,270.334 264.5,266.5C 276.108,263.994 287.774,263.994 299.5,266.5 Z"/></g>
<g><path style="opacity:0.996" fill="#f3b88f" d="M 162.5,306.5 C 230.843,316.752 299.176,327.252 367.5,338C 381.865,342.202 387.865,351.702 385.5,366.5C 321.166,366.333 256.832,366.5 192.5,367C 187.391,370.366 186.224,374.866 189,380.5C 189.903,381.701 191.069,382.535 192.5,383C 208.241,383.182 223.907,383.682 239.5,384.5C 256.957,397.451 274.29,410.617 291.5,424C 295.639,426.856 299.972,427.19 304.5,425C 326.384,410.942 348.384,397.109 370.5,383.5C 374.221,381.646 377.554,379.313 380.5,376.5C 409.514,358.663 438.181,340.329 466.5,321.5C 476.771,312.812 487.271,312.479 498,320.5C 506.423,332.687 504.923,343.52 493.5,353C 430.987,400.091 368.654,447.424 306.5,495C 295.279,503.576 282.946,505.576 269.5,501C 211.228,482.132 152.895,463.465 94.5,445C 69.5074,444.064 44.5074,443.397 19.5,443C 13.2602,441.092 9.42688,436.925 8,430.5C 7.33333,404.833 7.33333,379.167 8,353.5C 9.5,346.667 13.6667,342.5 20.5,341C 42.1667,340.667 63.8333,340.333 85.5,340C 88.8772,339.548 92.2105,338.882 95.5,338C 113.397,329.103 131.064,319.77 148.5,310C 153.023,308.203 157.69,307.036 162.5,306.5 Z"/></g>
<g><path style="opacity:1" fill="#dca179" d="M 385.5,366.5 C 384.358,370.117 382.692,373.45 380.5,376.5C 377.554,379.313 374.221,381.646 370.5,383.5C 370.44,382.957 370.107,382.624 369.5,382.5C 326.039,383.162 282.706,383.828 239.5,384.5C 223.907,383.682 208.241,383.182 192.5,383C 191.069,382.535 189.903,381.701 189,380.5C 186.224,374.866 187.391,370.366 192.5,367C 256.832,366.5 321.166,366.333 385.5,366.5 Z"/></g>
<g><path style="opacity:1" fill="#6b4227" d="M 370.5,383.5 C 348.384,397.109 326.384,410.942 304.5,425C 299.972,427.19 295.639,426.856 291.5,424C 274.29,410.617 256.957,397.451 239.5,384.5C 282.706,383.828 326.039,383.162 369.5,382.5C 370.107,382.624 370.44,382.957 370.5,383.5 Z"/></g>
</svg>
